<?xml version="1.0" standalone="no"?>
<!DOCTYPE svg PUBLIC "-//W3C//DTD SVG 20010904//EN"
 "http://www.w3.org/TR/2001/REC-SVG-20010904/DTD/svg10.dtd">
<svg version="1.0" xmlns="http://www.w3.org/2000/svg"
 width="2148.000000pt" height="1612.000000pt" viewBox="0 0 2148.000000 1612.000000"
 preserveAspectRatio="xMidYMid meet">

<g transform="translate(0.000000,1612.000000) scale(0.100000,-0.100000)"
fill="#000000" stroke="none">
<path d="M14737 15253 c-15 -2 -54 -29 -88 -60 l-60 -56 -42 14 c-24 8 -82 14
-137 14 -111 -1 -135 -11 -217 -88 l-53 -50 -56 18 c-42 13 -61 15 -77 7 -12
-6 -38 -14 -57 -17 -50 -10 -103 -49 -152 -114 -24 -31 -46 -57 -50 -59 -5 -2
-8 -11 -9 -20 0 -9 -8 -30 -18 -47 -13 -23 -27 -31 -61 -37 -23 -4 -71 -20
-105 -36 -49 -23 -71 -42 -110 -93 -80 -105 -95 -144 -95 -244 0 -71 4 -97 22
-132 18 -35 20 -48 10 -61 -49 -72 -104 -194 -117 -262 -4 -19 -6 -55 -6 -80
1 -40 7 -51 56 -100 59 -60 65 -78 37 -118 -34 -50 -44 -90 -40 -156 3 -58 8
-69 43 -108 52 -58 106 -92 179 -115 32 -10 69 -28 82 -41 19 -19 29 -23 56
-17 55 12 67 23 70 63 2 28 -2 41 -17 53 -23 18 -114 49 -143 49 -11 0 -46 19
-78 43 -68 50 -91 100 -67 147 7 14 13 33 13 43 0 20 -6 19 90 22 105 3 123
10 115 43 -4 15 -13 34 -21 43 -8 8 -14 20 -14 25 -1 9 -53 36 -145 75 -27 11
-58 28 -67 36 -22 20 -23 63 -3 123 35 103 75 160 113 161 15 0 43 6 62 13 29
11 36 19 41 49 8 52 -8 77 -72 108 -80 40 -84 46 -69 122 6 35 19 76 29 90 22
34 88 86 118 93 46 12 111 -2 150 -33 31 -24 45 -29 75 -25 42 5 50 12 66 60
10 30 9 38 -16 75 -45 68 -52 91 -37 118 8 13 18 33 24 45 5 11 25 35 45 52
36 32 37 32 73 17 46 -19 70 -41 79 -69 3 -11 18 -33 32 -48 21 -23 34 -28 74
-28 58 0 74 21 63 84 -18 109 -20 101 22 135 85 70 159 62 248 -29 41 -41 55
-50 85 -50 20 0 45 7 58 15 18 13 21 22 16 58 -5 36 -2 47 23 79 45 59 104 64
171 15 38 -28 57 -55 92 -127 10 -21 76 -25 105 -6 13 8 26 29 30 46 7 31 39
57 65 51 24 -5 39 -29 79 -126 23 -57 33 -103 38 -185 7 -109 10 -112 120
-111 60 0 82 -4 103 -19 15 -11 38 -24 52 -29 28 -11 88 -123 88 -166 0 -15
-8 -39 -19 -53 -29 -42 -35 -81 -15 -103 9 -11 21 -19 26 -19 20 0 148 -107
164 -137 17 -29 17 -41 5 -145 -22 -197 -18 -185 -67 -220 -28 -20 -48 -44
-55 -66 -11 -33 -10 -36 20 -64 17 -16 31 -33 31 -37 0 -4 -11 -20 -25 -35
-14 -15 -28 -39 -31 -54 -10 -40 -53 -111 -75 -123 -33 -17 -42 -1 -34 60 12
86 15 302 5 336 -5 17 -11 50 -14 75 -14 116 -25 179 -35 198 -6 11 -11 28
-11 37 0 9 -11 40 -24 68 -13 29 -27 62 -31 75 -11 37 -131 157 -214 215 -88
60 -156 95 -258 134 -73 27 -77 32 -73 80 1 13 -9 33 -23 47 -26 26 -129 60
-159 53 -10 -3 -20 -2 -23 3 -3 4 -50 13 -105 20 -77 10 -109 11 -139 2 -21
-7 -52 -12 -68 -12 -17 0 -36 -7 -43 -15 -7 -8 -20 -15 -29 -15 -42 0 -321
-212 -321 -243 0 -6 -8 -20 -19 -31 -37 -42 -129 -183 -165 -256 -21 -41 -42
-79 -47 -84 -5 -6 -9 -20 -9 -32 0 -12 -7 -51 -16 -85 -12 -47 -15 -84 -10
-144 4 -44 9 -132 10 -195 4 -120 17 -283 25 -300 2 -3 4 -14 6 -25 2 -11 9
-40 15 -65 5 -25 13 -61 16 -80 3 -19 10 -46 16 -60 23 -54 27 -66 33 -104 14
-83 181 -436 206 -436 5 0 16 -16 25 -35 18 -39 123 -141 194 -189 187 -125
198 -131 265 -150 108 -30 110 -32 110 -108 0 -46 5 -71 16 -84 17 -20 40
-133 44 -219 5 -86 40 -340 52 -375 17 -50 10 -82 -30 -123 -47 -49 -62 -49
-127 -2 -50 36 -255 142 -338 174 -88 35 -160 22 -197 -35 -16 -24 -16 -29 4
-77 18 -49 23 -68 37 -142 3 -16 9 -34 14 -40 6 -7 5 -16 -1 -22 -7 -7 -8 -21
-3 -34 7 -22 8 -57 5 -101 0 -9 -10 -19 -20 -23 -28 -9 -141 -122 -264 -265
-225 -259 -325 -362 -562 -576 -175 -157 -185 -167 -323 -304 -69 -69 -136
-132 -150 -141 -13 -9 -74 -66 -136 -125 -239 -234 -549 -513 -579 -523 -7 -2
-32 -21 -57 -43 -25 -22 -50 -42 -55 -46 -6 -4 -27 -19 -47 -34 -20 -16 -42
-28 -49 -28 -25 0 -99 -56 -109 -84 -19 -55 -13 -84 29 -126 22 -22 48 -40 59
-40 10 0 42 -24 70 -52 61 -64 81 -89 114 -149 23 -42 24 -49 11 -73 -8 -14
-30 -37 -51 -51 -43 -29 -80 -56 -141 -105 -157 -124 -354 -247 -571 -358
-229 -116 -197 -109 -387 -83 -75 11 -120 27 -228 83 -55 29 -178 46 -199 29
-9 -8 -16 -21 -16 -31 0 -14 -12 -18 -59 -23 -64 -5 -102 -25 -118 -60 -21
-45 -69 -91 -119 -113 -46 -20 -69 -23 -176 -23 -68 0 -134 -1 -148 -2 -33 -1
-239 30 -265 41 -11 4 -65 18 -120 30 -55 12 -120 29 -145 38 -25 9 -55 17
-66 19 -12 1 -38 9 -59 17 -21 9 -46 16 -56 16 -10 0 -33 9 -51 19 -18 11 -54
23 -81 26 -26 4 -49 11 -52 15 -3 4 11 75 30 156 52 221 48 245 -41 246 -47 0
-51 2 -47 22 3 16 -3 27 -19 38 -26 17 -164 53 -243 63 -27 3 -63 10 -80 15
-16 5 -77 17 -135 26 -58 9 -109 21 -115 26 -5 4 -23 8 -40 8 -17 0 -41 7 -54
16 -13 9 -37 20 -55 24 -52 14 -98 31 -171 66 -183 86 -287 130 -390 161 -27
8 -59 21 -70 29 -11 8 -26 14 -35 14 -8 0 -51 18 -95 40 -44 22 -98 45 -120
51 -21 6 -50 19 -63 30 -14 10 -32 19 -40 19 -9 0 -23 6 -31 13 -9 8 -36 19
-61 26 -25 7 -74 26 -108 42 -35 17 -85 37 -110 45 -26 9 -60 22 -77 29 -55
24 -150 54 -185 59 -19 2 -46 9 -60 14 -80 33 -384 98 -710 151 -30 5 -118 22
-195 39 -237 51 -287 57 -323 38 -20 -10 -29 -21 -26 -30 3 -8 -1 -27 -9 -42
l-15 -28 -5 40 c-4 21 -6 72 -6 112 0 39 -3 77 -6 82 -3 5 -8 45 -11 87 -3 43
-12 110 -21 148 -9 39 -17 119 -18 179 l-3 109 32 29 c17 16 49 34 71 40 22 7
49 17 60 24 11 6 31 14 45 18 14 3 60 37 103 76 43 38 82 70 86 70 18 0 71
-72 71 -96 0 -14 -9 -37 -21 -53 -16 -22 -21 -44 -21 -97 -1 -67 1 -73 60
-180 34 -61 71 -119 83 -130 29 -26 148 -33 180 -10 33 23 69 20 98 -8 33 -30
101 -67 176 -95 67 -25 112 -23 180 9 22 10 50 21 62 25 12 3 44 21 70 39 27
17 69 40 96 50 26 10 53 23 60 29 6 7 28 24 47 38 21 16 50 54 69 93 32 63 33
68 28 153 -4 76 -1 103 24 193 18 66 29 134 31 185 3 125 -12 305 -30 355 -16
44 -142 242 -162 255 -17 11 -11 60 13 106 26 49 53 167 62 275 8 80 -17 201
-60 297 -25 56 -118 192 -168 244 l-31 33 14 52 c21 82 14 178 -20 280 -62
184 -149 321 -230 363 -17 9 -56 20 -88 26 -58 11 -92 31 -92 56 0 29 -42 130
-75 179 -59 90 -127 124 -315 159 -157 30 -225 16 -307 -62 -67 -65 -88 -67
-147 -13 -93 86 -265 127 -338 82 -19 -12 -60 -24 -91 -28 -36 -4 -62 -13 -73
-25 -9 -11 -22 -19 -29 -19 -16 0 -115 -125 -142 -180 -13 -25 -23 -55 -23
-67 0 -24 -2 -25 -150 -88 -36 -15 -80 -41 -98 -56 -18 -16 -37 -29 -42 -29
-17 0 -89 -71 -137 -134 -27 -35 -55 -87 -67 -125 -19 -58 -24 -66 -52 -71
-17 -4 -45 -14 -64 -23 -18 -10 -37 -17 -41 -17 -12 0 -118 -82 -147 -112 -48
-52 -95 -145 -118 -233 l-23 -89 19 -60 c26 -78 26 -82 -13 -130 -56 -69 -79
-125 -101 -252 -23 -137 7 -277 79 -362 14 -17 28 -44 31 -61 5 -26 0 -37 -36
-78 -78 -90 -107 -171 -116 -331 -5 -75 -3 -137 6 -185 14 -79 75 -269 98
-305 13 -20 13 -27 -1 -65 -42 -111 -44 -245 -6 -316 10 -20 19 -42 19 -49 0
-8 26 -40 58 -71 62 -62 99 -77 215 -88 66 -6 171 12 188 33 18 22 58 16 97
-16 49 -39 101 -46 193 -25 82 18 201 69 226 97 13 14 32 18 92 18 58 0 84 5
108 20 39 23 72 84 72 131 0 110 17 216 43 264 l26 50 62 -2 c34 -1 68 -7 76
-14 11 -9 14 -38 14 -120 0 -64 8 -150 19 -211 30 -159 35 -212 32 -358 -2
-152 1 -162 70 -174 40 -7 63 10 74 57 7 27 23 34 41 18 14 -13 127 -50 176
-57 24 -4 56 -13 72 -21 l29 -15 -7 -133 c-5 -108 -11 -144 -31 -194 -14 -33
-25 -72 -25 -86 0 -25 -45 -74 -94 -102 -49 -28 -211 -3 -315 50 -76 38 -209
162 -246 227 -44 81 -48 94 -49 187 -1 108 7 123 53 100 46 -23 86 -6 111 46
24 50 25 65 2 95 -16 20 -29 24 -98 28 -74 5 -87 2 -194 -36 -63 -23 -180 -64
-260 -91 -151 -52 -169 -60 -391 -176 -140 -73 -219 -124 -347 -221 -40 -32
-88 -66 -105 -78 -93 -62 -232 -144 -306 -181 -46 -23 -106 -61 -132 -83 -26
-22 -52 -40 -57 -40 -5 0 -25 -12 -45 -27 -73 -57 -149 -108 -197 -134 -27
-14 -55 -31 -63 -37 -43 -36 -293 -185 -415 -248 -78 -40 -156 -82 -172 -94
-31 -22 -156 -77 -205 -90 -27 -7 -46 -14 -110 -41 -11 -5 -47 -18 -80 -30
-33 -12 -69 -28 -81 -35 -11 -8 -54 -23 -96 -33 -41 -11 -108 -30 -149 -44
-41 -13 -106 -34 -146 -47 -80 -25 -106 -47 -121 -101 -13 -47 -5 -82 21 -100
40 -27 285 -278 292 -298 10 -31 -24 -70 -105 -121 -40 -25 -90 -59 -113 -75
-64 -47 -144 -78 -186 -72 -80 11 -207 67 -289 129 -35 27 -68 48 -73 48 -16
0 -116 -49 -127 -63 -13 -16 17 -115 38 -122 8 -3 22 -20 31 -38 8 -17 25 -36
37 -42 43 -19 19 -35 -121 -86 -108 -39 -129 -50 -212 -109 -38 -28 -96 -67
-129 -88 -92 -58 -154 -110 -169 -140 -28 -56 1 -142 48 -142 31 0 115 22 185
49 30 12 63 21 74 21 21 0 23 3 -56 -98 -68 -87 -81 -118 -74 -164 4 -22 14
-51 23 -64 14 -22 21 -24 57 -18 46 7 107 30 116 43 4 8 74 61 195 149 46 34
81 47 89 33 4 -5 -10 -36 -29 -68 -19 -32 -35 -64 -35 -71 0 -14 -18 -49 -41
-77 -22 -27 -39 -81 -39 -121 0 -42 27 -71 75 -80 31 -5 41 -2 65 21 16 15 41
52 55 83 14 30 37 69 50 87 14 17 25 37 25 43 0 6 14 27 30 45 17 19 30 38 30
42 0 16 51 75 64 75 22 0 38 -54 41 -133 3 -87 10 -114 38 -145 25 -27 91 -30
126 -6 21 15 23 22 18 66 -4 28 -11 56 -17 63 -10 12 -17 82 -27 284 -4 71 0
96 22 167 22 70 26 95 20 143 -8 70 6 102 62 144 124 93 332 241 356 254 26
13 30 12 54 -9 69 -62 105 -103 136 -156 11 -19 31 -45 44 -58 13 -13 23 -32
23 -42 0 -10 10 -27 21 -38 12 -10 34 -36 50 -57 27 -37 66 -83 188 -220 35
-40 74 -88 87 -107 13 -19 41 -60 64 -90 22 -30 43 -63 46 -72 4 -10 10 -18
14 -18 4 0 10 -13 13 -29 6 -30 28 -82 73 -176 13 -28 24 -56 24 -62 0 -17 33
-33 65 -33 26 0 69 36 101 85 14 22 6 56 -29 122 -9 18 -17 39 -17 48 0 8 -4
15 -10 15 -5 0 -10 5 -10 10 0 33 -144 290 -162 290 -4 0 -8 6 -8 13 0 6 -26
44 -58 82 -56 70 -75 91 -140 163 -19 20 -58 70 -88 110 -30 39 -59 72 -63 72
-5 0 -11 10 -15 23 -6 26 -80 128 -101 140 -8 4 -15 14 -15 21 0 6 -16 29 -35
50 -19 21 -45 56 -57 79 -13 22 -38 48 -57 58 -55 29 -294 269 -283 284 11 16
52 32 112 46 51 11 93 26 145 49 75 34 123 52 220 85 115 39 202 79 370 170
55 29 119 63 142 74 23 11 47 27 55 34 7 7 29 21 48 30 19 10 73 45 120 77 47
33 89 60 93 60 8 0 51 29 312 211 72 50 160 105 196 123 67 35 214 124 259
158 66 50 282 208 340 249 83 58 329 182 445 224 50 19 115 45 145 58 30 14
76 29 101 32 l46 7 7 -80 c3 -44 10 -93 15 -108 5 -16 15 -49 22 -74 14 -50
47 -108 73 -129 9 -7 16 -19 16 -26 0 -32 146 -163 215 -194 39 -17 53 -45 59
-115 7 -76 15 -116 26 -131 4 -5 11 -48 15 -95 3 -47 8 -96 10 -110 2 -14 9
-72 15 -129 9 -95 25 -183 51 -286 6 -22 15 -60 20 -85 6 -25 14 -54 19 -65
23 -53 40 -112 38 -132 -2 -25 5 -24 -238 -28 -30 -1 -86 -2 -125 -4 -102 -5
-113 -3 -136 20 -11 11 -45 33 -75 48 -67 33 -194 155 -194 186 0 12 10 30 21
41 32 28 69 90 69 115 0 34 -56 79 -99 79 -40 0 -38 2 -136 -120 -62 -78 -77
-99 -94 -137 -6 -13 -39 -60 -73 -105 -35 -46 -72 -94 -81 -108 -53 -76 -74
-101 -135 -166 -122 -129 -216 -234 -226 -251 -5 -10 -41 -54 -81 -98 -39 -44
-98 -116 -130 -160 -110 -148 -212 -269 -289 -345 -42 -41 -76 -79 -76 -85 0
-10 -128 -158 -283 -329 -43 -47 -102 -98 -147 -127 -122 -78 -120 -76 -120
-118 0 -52 31 -84 73 -76 18 4 44 15 59 26 15 10 32 19 39 19 22 0 134 88 200
156 88 92 240 254 259 277 24 29 58 67 114 127 65 70 176 207 176 218 0 4 18
26 40 47 22 21 40 43 40 48 0 9 72 102 95 122 6 6 17 19 25 31 20 28 126 148
171 193 19 20 69 74 110 120 41 46 85 97 99 112 32 35 108 132 140 179 43 62
112 140 126 140 7 0 26 -12 42 -27 16 -16 51 -46 78 -68 27 -22 61 -53 77 -70
27 -29 28 -32 22 -110 -4 -44 -8 -86 -10 -92 -7 -21 39 -44 77 -40 45 5 58 14
58 37 0 10 5 22 11 26 7 4 9 21 6 40 -4 26 -1 39 14 52 16 16 35 18 127 16
327 -7 1016 6 1060 21 20 7 25 2 39 -34 18 -45 38 -56 88 -47 61 12 62 14 56
261 -1 61 -7 125 -13 143 -8 29 -5 40 28 100 21 37 52 87 71 111 18 24 33 48
33 53 0 5 21 30 48 57 44 44 50 47 77 38 29 -9 136 -53 202 -83 17 -8 36 -14
42 -14 6 0 28 -10 49 -23 20 -12 46 -28 57 -35 11 -6 58 -30 105 -53 47 -22
111 -54 143 -70 31 -16 63 -29 71 -29 7 0 19 -7 26 -14 6 -8 28 -20 48 -27
110 -36 355 -221 597 -452 44 -42 83 -77 88 -77 4 0 7 -4 7 -10 0 -5 23 -36
51 -67 28 -32 79 -89 113 -127 33 -38 75 -84 92 -102 16 -18 38 -51 49 -73 10
-23 24 -46 32 -52 7 -7 20 -26 29 -44 14 -30 53 -81 135 -176 17 -19 34 -41
39 -49 21 -34 177 -181 207 -195 40 -19 73 -7 107 38 19 25 21 45 24 175 1 81
7 163 12 182 6 19 10 49 10 67 0 17 5 35 10 38 6 3 10 30 10 60 0 29 6 80 14
112 8 32 17 105 21 163 4 58 10 110 15 115 4 6 20 69 35 140 15 72 31 138 36
147 5 9 9 27 9 40 0 24 21 120 48 221 27 97 31 98 180 49 114 -38 259 -79 397
-112 28 -6 70 -18 95 -25 25 -8 70 -17 100 -20 64 -8 164 -30 179 -40 6 -3 11
-17 11 -30 0 -17 26 -49 92 -112 124 -119 146 -142 173 -184 13 -19 45 -59 72
-88 l48 -53 100 -10 c68 -7 128 -6 192 1 52 6 105 8 119 5 41 -10 193 45 239
86 11 10 35 25 52 34 18 9 40 31 49 49 9 17 41 58 70 89 36 37 54 65 54 82 0
14 5 28 10 31 6 3 10 16 10 29 0 12 4 26 9 32 5 5 19 41 31 79 31 97 47 124
78 137 15 7 34 17 42 24 14 11 71 42 280 151 87 46 289 185 303 210 4 7 22 20
38 29 17 8 70 44 117 80 110 81 141 85 166 21 9 -23 16 -49 16 -58 0 -15 7
-29 78 -162 23 -42 42 -86 42 -97 0 -23 20 -70 31 -70 27 0 99 44 124 76 17
21 39 47 50 56 11 10 38 34 60 55 22 20 76 68 120 107 162 140 406 382 515
509 130 153 137 162 141 173 2 7 30 41 61 75 56 63 208 243 278 330 19 24 48
55 63 69 27 23 141 156 262 304 28 34 108 119 179 189 146 145 160 150 170 64
7 -67 8 -244 2 -327 -3 -36 -11 -122 -17 -192 -9 -98 -9 -131 0 -142 7 -9 8
-17 2 -20 -17 -11 -37 -120 -47 -256 -3 -47 -13 -107 -21 -135 -8 -27 -16 -87
-19 -132 -2 -46 -11 -100 -18 -120 -22 -58 -48 -200 -52 -281 -2 -41 -8 -80
-14 -87 -9 -11 -41 -117 -57 -190 -3 -16 -9 -32 -13 -35 -9 -7 -32 -107 -34
-151 -1 -20 -6 -43 -12 -50 -32 -44 -48 -108 -34 -143 12 -31 78 -53 119 -38
14 6 59 18 100 27 61 14 76 15 87 3 10 -10 13 -53 14 -173 0 -182 -8 -434 -15
-446 -4 -6 -5 -238 -2 -489 0 -81 -24 -764 -28 -771 -3 -3 -4 -175 -4 -380 1
-724 2 -671 -16 -994 -4 -60 -11 -147 -16 -192 -5 -45 -11 -126 -14 -180 -2
-54 -6 -105 -9 -113 -5 -15 -8 -51 -25 -240 -13 -140 -20 -196 -33 -253 -6
-27 -8 -68 -5 -93 3 -27 -1 -54 -10 -71 -9 -17 -14 -56 -13 -108 0 -44 -4
-123 -10 -175 -6 -52 -13 -187 -16 -300 -3 -113 -9 -217 -15 -232 -6 -15 -8
-31 -5 -36 9 -16 -39 -167 -63 -196 -20 -24 -16 -67 7 -87 12 -9 43 -20 69
-24 26 -3 64 -9 83 -11 19 -3 44 -8 55 -11 10 -3 74 -5 141 -5 95 1 125 -2
134 -13 14 -17 15 -55 7 -190 -20 -308 -20 -317 28 -329 13 -3 40 -20 60 -37
33 -30 40 -31 137 -35 151 -5 176 -11 192 -42 25 -50 49 -193 42 -261 -7 -75
-16 -88 -65 -96 -20 -4 -63 -12 -96 -20 -44 -10 -74 -11 -115 -4 -81 15 -309
21 -350 10 -50 -14 -216 -42 -280 -47 -30 -3 -62 -8 -70 -11 -8 -3 -40 -7 -70
-7 -46 -1 -98 -9 -265 -42 -136 -27 -180 -33 -241 -34 -39 0 -74 -3 -78 -7
-11 -11 -32 -13 -216 -17 -111 -3 -194 -10 -227 -19 -45 -13 -62 -13 -133 -1
-101 18 -121 28 -190 98 -72 72 -87 119 -57 169 83 132 208 213 412 267 205
54 484 81 621 60 65 -10 74 -24 83 -125 7 -68 13 -92 27 -102 22 -16 26 -16
49 0 10 8 20 30 22 53 2 21 8 54 14 71 6 18 7 37 4 43 -21 33 78 57 105 25 6
-8 14 -57 16 -112 4 -80 8 -102 24 -118 20 -19 20 -19 47 2 16 11 31 35 35 54
4 19 13 60 20 92 14 63 27 73 82 63 41 -8 65 -34 68 -72 1 -16 4 -33 7 -39 3
-5 11 -32 16 -60 10 -49 11 -50 44 -47 19 1 37 4 39 7 9 9 25 84 29 138 5 64
-1 61 118 57 47 -1 66 3 84 17 23 19 23 20 7 45 -15 22 -30 28 -109 42 -163
29 -205 49 -172 82 10 10 15 27 12 41 -3 15 1 23 9 23 25 0 37 76 23 151 -13
73 -25 90 -77 107 -38 13 -72 1 -106 -37 -10 -11 -22 -18 -27 -15 -4 2 -16 -7
-25 -21 -21 -32 -54 -32 -91 -2 -44 37 -156 107 -170 107 -7 0 -13 5 -13 10 0
6 -20 10 -44 10 -37 0 -48 -5 -70 -31 -31 -36 -35 -102 -10 -155 18 -37 106
-117 142 -128 12 -4 22 -15 22 -26 0 -15 -5 -17 -27 -11 -45 12 -610 5 -675
-8 -32 -7 -62 -10 -66 -7 -5 3 -33 -4 -63 -14 -30 -11 -80 -24 -112 -30 -32
-5 -72 -16 -89 -25 -17 -8 -37 -15 -45 -15 -8 0 -38 -16 -67 -35 -29 -19 -58
-35 -64 -35 -17 0 -177 -163 -208 -211 -38 -61 -45 -154 -15 -202 11 -19 21
-42 21 -51 0 -26 54 -127 98 -182 56 -71 154 -118 286 -139 55 -9 124 -15 155
-15 65 2 269 -8 426 -20 124 -9 373 -2 381 11 3 5 28 9 56 9 50 0 53 2 117 68
70 72 134 124 165 136 11 4 63 11 115 16 101 9 121 4 121 -32 0 -11 16 -36 35
-55 33 -33 37 -34 87 -28 122 15 176 15 296 0 261 -33 321 -30 361 19 18 21 1
68 -39 109 -42 43 -39 63 8 71 24 3 49 17 67 36 28 29 30 39 36 123 6 91 -5
228 -20 257 -4 8 -16 56 -26 105 -16 74 -24 95 -49 119 -30 28 -32 28 -126 23
-57 -3 -119 -13 -155 -26 -34 -11 -80 -23 -104 -27 l-44 -7 8 39 c7 35 14 205
19 429 1 61 5 83 17 92 19 14 294 63 355 63 23 0 46 -6 51 -13 6 -6 13 -41 17
-76 7 -79 25 -101 78 -101 36 0 45 9 39 43 0 4 8 7 18 7 11 0 22 4 26 10 3 5
8 125 10 267 5 249 20 497 32 516 3 5 9 39 14 76 7 62 17 119 40 236 33 172
42 351 36 785 0 63 2 160 6 215 13 179 8 606 -8 675 -12 56 -22 149 -24 225
-1 44 -8 125 -15 180 -8 55 -14 107 -14 115 1 33 -13 228 -19 270 -8 56 -9 88
-12 270 -1 79 -5 148 -8 154 -3 5 -8 51 -10 101 -2 75 0 94 12 98 8 4 16 3 19
-1 20 -34 86 -225 90 -262 3 -24 17 -73 26 -95 5 -11 14 -49 20 -85 7 -36 19
-99 27 -140 8 -41 18 -106 23 -145 5 -38 13 -88 19 -110 5 -22 22 -94 36 -160
31 -140 99 -335 116 -335 3 0 4 -11 2 -24 -3 -13 4 -51 16 -83 12 -33 21 -69
21 -81 0 -11 4 -23 9 -26 4 -3 11 -24 15 -47 4 -23 10 -47 14 -53 4 -6 7 -13
7 -16 1 -3 5 -34 9 -70 5 -36 13 -76 18 -90 5 -14 11 -68 14 -122 2 -53 9
-109 15 -125 6 -15 10 -67 9 -115 0 -48 4 -96 10 -107 11 -22 29 -103 35 -161
12 -112 27 -204 35 -220 6 -10 10 -36 10 -58 0 -21 3 -42 8 -46 4 -4 7 -49 8
-99 1 -92 10 -178 39 -357 34 -207 44 -274 39 -281 -2 -4 2 -45 10 -90 8 -46
17 -140 20 -209 3 -69 10 -167 15 -218 5 -52 8 -99 5 -106 -2 -6 9 -30 26 -53
24 -33 40 -43 76 -51 26 -6 60 -6 83 -1 81 18 257 36 277 29 27 -11 40 -46 54
-150 6 -47 15 -119 21 -160 11 -71 10 -75 -11 -92 -25 -20 -48 -22 -105 -7
-22 5 -57 12 -77 13 -21 2 -49 11 -63 20 -14 9 -47 20 -74 23 -44 5 -50 3 -70
-23 -13 -16 -19 -34 -15 -43 4 -9 8 -117 9 -241 3 -207 11 -307 35 -400 5 -19
11 -70 14 -114 4 -43 9 -82 11 -87 14 -22 220 -58 370 -65 50 -2 149 -6 220
-9 134 -6 152 -8 245 -20 50 -6 59 -4 97 20 37 25 43 34 48 74 7 49 22 98 38
119 18 24 59 12 123 -37 60 -45 71 -49 137 -55 73 -7 330 -19 357 -18 22 1
201 30 231 38 20 4 33 -1 54 -20 22 -21 38 -26 79 -26 78 0 164 17 194 38 16
12 53 22 92 26 108 12 221 42 240 65 3 4 17 12 31 18 31 13 71 90 74 140 1 18
5 37 9 40 10 11 7 37 -10 68 -9 17 -22 80 -29 140 -31 259 -70 336 -214 419
-98 57 -193 83 -383 105 -47 5 -95 14 -105 20 -51 27 -277 61 -405 61 -42 0
-87 4 -101 9 -22 9 -23 13 -19 68 4 54 2 62 -24 90 -36 38 -118 93 -138 93 -8
0 -17 4 -21 9 -3 5 -33 8 -66 6 -69 -3 -102 16 -92 54 3 13 -4 36 -19 59 -37
56 -66 126 -74 179 -3 27 -10 55 -15 64 -5 9 -15 52 -23 95 -8 44 -19 93 -25
109 -6 17 -18 56 -27 88 -9 33 -24 66 -35 75 -13 11 -15 18 -7 23 8 5 7 14 -5
33 -9 14 -17 38 -17 53 0 15 -7 41 -15 57 -8 15 -15 35 -15 42 0 8 -4 22 -9
32 -5 9 -17 44 -27 77 -10 33 -22 64 -26 69 -4 6 -8 17 -8 25 0 9 -7 29 -15
44 -8 15 -12 34 -9 42 3 7 0 24 -7 37 -7 13 -18 48 -25 78 -36 156 -64 271
-78 323 -9 32 -14 63 -11 68 4 5 -3 30 -15 55 -11 26 -23 72 -26 103 -3 31
-15 88 -26 126 -11 39 -23 86 -28 105 -4 19 -19 85 -34 145 -14 61 -28 124
-30 140 -10 66 -19 111 -28 129 -6 10 -14 46 -19 80 -23 144 -36 215 -67 356
-5 25 -15 70 -22 100 -6 30 -22 91 -36 135 -13 44 -33 127 -44 185 -11 58 -27
134 -36 170 -17 73 -31 148 -43 230 -5 31 -17 82 -27 115 -10 33 -19 80 -20
105 -3 57 -20 180 -33 245 -6 28 -13 75 -16 105 -3 30 -14 120 -25 200 -11 80
-24 182 -30 228 -5 45 -15 121 -21 170 -6 48 -15 107 -19 132 -5 25 -16 106
-25 180 -8 74 -22 158 -30 185 -18 63 -37 184 -39 249 l-1 50 40 7 c22 4 114
15 205 24 157 16 251 16 410 -1 52 -5 57 -4 88 26 42 42 45 102 7 158 -14 20
-25 44 -25 54 0 10 -11 41 -24 70 -13 29 -34 85 -46 123 -12 39 -27 77 -35 85
-7 8 -34 67 -59 130 -26 63 -53 126 -60 140 -8 14 -19 59 -25 100 -7 41 -20
93 -30 115 -10 22 -29 81 -41 130 -12 50 -26 91 -30 93 -5 2 -7 9 -4 17 3 7
-1 29 -10 47 -8 18 -20 55 -26 81 -6 27 -21 70 -35 96 -13 26 -33 77 -45 112
-11 35 -27 75 -34 89 -8 14 -17 40 -21 59 -4 19 -18 54 -31 79 -13 24 -26 60
-29 80 -3 21 -19 64 -34 97 -16 33 -36 87 -46 120 -10 33 -21 65 -25 70 -4 6
-10 22 -14 38 -9 40 22 36 95 -13 33 -22 62 -40 65 -40 25 0 309 -269 439
-416 113 -128 305 -311 373 -356 34 -23 62 -46 62 -50 0 -5 13 -16 30 -26 36
-22 99 -79 250 -225 64 -62 169 -163 233 -224 64 -62 117 -117 117 -123 0 -5
16 -20 35 -32 19 -13 40 -34 46 -48 7 -14 35 -47 63 -75 28 -27 76 -78 107
-112 57 -63 90 -80 134 -69 31 8 75 72 75 109 0 39 46 132 91 187 37 45 58 78
100 155 32 58 69 105 85 105 7 0 47 -18 88 -39 42 -22 76 -37 76 -34 0 3 15
-5 33 -19 17 -13 54 -29 82 -36 27 -7 63 -19 80 -26 43 -19 80 -32 165 -56
232 -65 282 -91 288 -145 2 -17 14 -46 28 -66 13 -19 24 -42 24 -52 0 -9 6
-20 14 -24 7 -4 21 -25 30 -45 10 -20 28 -47 40 -60 12 -13 40 -52 61 -88 21
-36 49 -76 63 -90 13 -13 31 -38 39 -54 8 -16 29 -44 47 -62 17 -18 44 -48 59
-68 16 -20 37 -36 47 -36 11 0 22 -5 26 -12 5 -8 2 -9 -12 -4 -28 11 31 -49
84 -85 56 -38 82 -37 107 4 22 34 29 36 139 23 34 -4 59 -1 79 9 17 8 35 15
41 15 6 0 24 11 40 24 28 22 29 25 17 54 -12 29 -15 30 -69 27 -70 -4 -181 33
-212 70 -21 26 -2 30 48 11 101 -39 140 -41 312 -17 63 10 79 16 102 41 15 17
34 30 42 30 25 0 66 59 66 94 0 60 -44 73 -106 31 -20 -14 -47 -25 -60 -25
-13 0 -24 -4 -24 -8 0 -5 -6 -9 -12 -10 -55 -4 -168 -21 -177 -26 -20 -13
-276 123 -261 137 3 3 84 -6 182 -20 107 -16 190 -23 213 -19 26 5 54 25 104
75 67 67 98 122 117 208 3 15 8 35 11 43 4 8 7 39 7 69 1 42 5 56 20 65 11 6
27 19 37 28 10 9 29 24 42 33 16 10 28 30 32 53 4 20 17 49 30 64 19 23 23 37
20 81 -5 75 -23 135 -54 179 -24 34 -51 50 -187 115 -35 17 -71 12 -141 -18
-45 -19 -54 -25 -105 -72 -25 -23 -37 -28 -61 -23 -17 4 -33 10 -37 15 -9 14
-113 34 -172 33 -54 -1 -111 -20 -162 -54 -32 -21 -126 -111 -126 -120 0 -4
-18 -24 -40 -44 -22 -20 -40 -41 -41 -48 -1 -19 -105 -100 -140 -110 -111 -30
-379 6 -481 64 -10 5 -34 14 -55 19 -59 15 -121 39 -213 83 -47 22 -95 45
-107 51 -16 7 -23 19 -23 38 0 30 45 140 73 179 19 26 66 98 104 159 24 39 23
68 -4 122 -16 32 -56 61 -173 122 -41 22 -87 48 -102 58 -14 11 -29 19 -33 19
-3 0 -32 17 -63 37 -31 20 -70 44 -87 53 -55 29 -80 45 -102 64 -12 10 -40 28
-62 40 -22 11 -67 39 -100 61 -58 39 -294 192 -396 257 -27 18 -72 49 -100 70
-151 116 -288 208 -308 208 -8 0 -22 9 -32 20 -10 11 -22 20 -27 20 -5 0 -21
8 -36 18 -87 60 -122 82 -201 127 -29 17 -92 58 -139 92 -48 34 -121 85 -162
114 -41 28 -95 68 -118 88 -24 20 -55 43 -69 53 -14 9 -104 93 -199 188 -193
190 -214 203 -273 161 -29 -21 -30 -26 -28 -78 3 -43 8 -60 23 -69 10 -7 52
-45 93 -83 41 -39 78 -68 83 -65 4 3 8 -3 8 -14 0 -22 84 -113 145 -158 22
-16 43 -34 47 -40 4 -6 26 -24 50 -40 24 -16 47 -35 51 -42 11 -17 114 -92
127 -92 5 0 18 -8 29 -17 34 -32 65 -53 78 -53 7 0 13 -4 13 -9 0 -12 179
-130 288 -191 15 -8 29 -17 32 -20 3 -3 21 -13 40 -23 19 -10 53 -29 75 -42
22 -14 52 -25 66 -25 29 0 54 -23 44 -40 -3 -5 0 -10 7 -10 8 0 40 -22 73 -50
33 -28 63 -50 67 -50 5 0 14 -5 21 -10 7 -6 30 -24 52 -40 22 -17 49 -37 60
-46 19 -15 42 -30 140 -93 22 -14 55 -38 73 -53 18 -15 37 -28 42 -28 5 0 30
-15 56 -32 25 -18 53 -37 63 -43 9 -5 43 -29 77 -52 33 -23 89 -55 124 -72 35
-17 76 -42 90 -55 14 -13 45 -36 70 -50 25 -15 63 -40 85 -56 40 -29 156 -90
172 -90 12 0 63 -49 63 -62 0 -21 -131 -275 -170 -327 -22 -29 -37 -57 -35
-61 3 -4 -2 -13 -10 -20 -8 -7 -15 -21 -15 -32 0 -10 -7 -21 -15 -24 -8 -3
-17 -15 -21 -26 -3 -11 -28 -49 -55 -85 -27 -36 -49 -70 -49 -75 0 -6 -10 -23
-22 -38 -13 -16 -38 -50 -57 -75 -29 -39 -38 -45 -59 -40 -26 6 -119 98 -220
214 -109 126 -303 310 -320 304 -11 -5 -14 -2 -9 9 7 20 -152 175 -288 280
-108 82 -322 289 -528 510 -71 76 -141 145 -158 155 -16 10 -29 22 -29 28 0
27 -284 248 -350 273 -22 8 -128 91 -167 130 -31 31 -36 33 -78 26 -54 -8 -65
-24 -66 -96 -2 -64 9 -118 26 -138 15 -17 55 -142 55 -170 0 -10 3 -20 8 -22
4 -1 18 -37 31 -78 13 -41 55 -169 93 -284 68 -205 77 -256 44 -256 -8 0 -36
-10 -63 -21 -26 -12 -66 -25 -88 -30 -103 -20 -139 -36 -161 -68 -26 -38 -23
-56 26 -146 68 -125 182 -265 217 -265 10 0 73 14 138 30 65 17 125 28 132 26
7 -3 13 -14 13 -24 0 -10 11 -41 25 -68 14 -27 25 -56 25 -64 0 -32 33 -150
42 -150 5 0 7 -4 4 -8 -7 -12 13 -82 24 -82 4 0 11 -18 15 -40 4 -22 11 -40
16 -40 5 0 9 -9 9 -20 0 -23 33 -93 61 -129 11 -13 19 -33 19 -45 0 -11 13
-55 30 -96 42 -107 41 -111 -22 -110 -114 3 -208 -2 -214 -11 -3 -5 -29 -9
-57 -7 -29 1 -110 -5 -182 -15 -116 -15 -426 -37 -512 -37 -29 0 -33 4 -42 38
-9 35 -27 189 -35 297 -6 85 -26 175 -46 213 -11 20 -20 46 -20 57 -1 11 -7
31 -15 45 -8 14 -14 33 -15 43 0 10 -20 65 -45 121 -25 57 -45 113 -45 124 0
11 -7 25 -15 32 -8 7 -15 17 -15 23 0 5 -11 34 -25 63 -14 30 -28 68 -31 86
-15 88 -57 131 -118 121 -38 -6 -71 -34 -63 -55 2 -7 0 -24 -6 -38 -5 -14 -11
-180 -13 -375 -1 -192 -6 -393 -10 -445 -4 -52 -6 -111 -5 -130 4 -46 -20
-263 -29 -274 -5 -4 -34 -14 -67 -21 -32 -8 -92 -22 -133 -33 -41 -11 -102
-23 -135 -27 -33 -3 -69 -10 -80 -15 -11 -5 -47 -13 -80 -19 -66 -12 -165 -34
-234 -51 -30 -7 -47 -8 -54 -1 -12 12 7 149 29 217 8 23 15 55 16 70 1 16 7
38 14 49 7 11 15 40 19 65 3 25 15 90 25 145 11 55 26 136 35 181 8 45 15 92
15 106 0 38 36 78 70 78 16 0 41 5 57 12 15 6 67 12 115 12 127 2 119 -11 163
264 2 12 -1 50 -7 85 -8 46 -18 69 -39 89 l-28 27 -58 -15 c-32 -9 -77 -20
-101 -26 -33 -9 -47 -8 -67 2 -24 13 -25 16 -22 114 1 56 5 103 9 107 15 10
20 439 8 544 -7 55 -12 152 -12 215 1 135 -9 160 -62 160 -33 0 -61 -26 -123
-118 -30 -43 -181 -220 -192 -224 -17 -6 -192 -200 -251 -278 -60 -79 -123
-153 -170 -200 -14 -14 -63 -71 -109 -127 -46 -57 -87 -103 -92 -103 -4 0 -17
-16 -30 -36 -12 -20 -29 -43 -38 -52 -24 -25 -130 -149 -176 -207 -22 -27 -43
-52 -48 -54 -7 -3 -46 -58 -72 -101 -12 -20 -565 -567 -624 -617 -48 -41 -72
-41 -103 0 -29 37 -80 144 -98 202 -6 22 -18 54 -26 72 -8 17 -14 36 -14 43 0
7 -8 24 -19 38 -10 15 -22 38 -26 52 -14 46 -68 144 -92 168 -13 13 -45 46
-70 73 l-47 50 64 57 c34 31 94 80 131 108 94 70 201 172 194 184 -3 5 10 16
29 24 34 14 139 110 411 376 83 81 213 208 289 281 76 74 168 162 203 197 36
35 94 86 129 113 35 28 67 57 72 64 4 7 53 62 109 122 56 59 115 122 130 138
16 17 60 68 98 114 113 135 262 283 282 279 10 -2 22 -17 27 -33 24 -79 51
-104 116 -107 29 -1 47 5 63 20 13 12 33 22 45 22 11 0 23 4 27 9 3 5 29 17
58 26 28 10 56 21 61 26 6 5 21 9 35 8 21 0 38 -19 94 -102 38 -56 95 -140
127 -187 77 -111 163 -283 195 -390 33 -108 46 -123 100 -115 73 11 82 20 89
92 4 37 3 70 -3 77 -17 21 -33 226 -22 296 15 97 36 188 60 253 11 33 27 111
36 174 23 169 8 158 238 169 105 4 228 8 272 9 89 0 112 10 139 62 21 42 21
44 -16 105 -32 51 -41 71 -68 148 -7 19 -21 53 -30 75 -10 22 -28 66 -41 98
-12 31 -26 57 -31 57 -4 0 -8 9 -8 19 0 11 -16 40 -35 65 -19 26 -35 50 -35
54 0 13 -65 72 -78 72 -34 0 -142 -75 -142 -99 0 -17 -26 -48 -161 -191 -59
-63 -116 -126 -127 -140 -19 -24 -22 -24 -66 -12 -26 6 -69 12 -96 12 -44 0
-51 3 -64 28 -8 15 -17 61 -21 102 -4 41 -13 93 -20 115 -7 22 -13 63 -14 90
-2 70 -7 128 -19 220 -6 44 -11 112 -11 151 l-1 72 33 12 c104 39 133 54 212
105 48 32 101 73 118 93 18 19 38 41 45 48 6 7 12 19 12 27 0 8 7 20 15 27 8
6 17 22 21 33 3 12 12 29 19 37 19 23 75 129 75 143 0 7 9 29 20 50 11 20 20
44 20 52 0 8 4 23 10 33 21 36 73 240 77 303 l5 66 52 2 c41 1 56 7 77 29 35
35 85 128 93 172 11 57 28 93 54 122 20 22 26 40 30 100 3 42 10 77 18 83 16
13 44 92 44 127 0 15 4 29 9 32 12 8 25 112 22 194 -2 90 -21 128 -100 204
l-58 56 2 57 c1 31 -3 58 -8 62 -5 3 -6 16 -3 29 4 13 2 32 -3 41 -5 10 -12
30 -16 46 -14 69 -147 164 -260 187 -33 7 -63 17 -67 24 -4 6 -8 33 -8 59 0
27 -5 57 -11 68 -5 11 -12 33 -14 50 -2 17 -8 36 -13 42 -5 7 -12 25 -16 41
-9 37 -45 81 -99 123 -50 39 -98 43 -159 13 -23 -11 -45 -20 -50 -20 -4 0 -25
16 -46 35 -65 58 -178 92 -265 78z m-134 -672 c26 -4 50 -11 53 -14 4 -3 -10
-22 -31 -41 -62 -59 -34 -82 145 -116 63 -12 127 -28 142 -36 14 -8 32 -14 38
-14 41 0 239 -129 301 -197 31 -33 89 -118 106 -153 28 -62 45 -135 58 -260
19 -178 18 -237 -5 -344 -11 -50 -20 -102 -20 -117 0 -15 -4 -30 -9 -33 -4 -3
-10 -45 -13 -94 -3 -48 -10 -97 -15 -107 -17 -33 -53 -152 -53 -174 0 -11 -4
-22 -9 -26 -10 -5 -26 -38 -72 -144 -30 -69 -115 -199 -153 -234 -56 -52 -234
-122 -326 -129 -29 -2 -96 19 -125 38 -11 8 -25 14 -32 14 -15 0 -130 68 -159
95 -12 11 -47 38 -78 60 -30 22 -56 45 -56 50 0 6 -20 35 -45 65 -25 30 -63
92 -86 138 -23 45 -46 85 -51 88 -4 3 -6 9 -3 13 2 5 -8 35 -24 67 -37 77
-107 359 -132 529 -7 48 -22 303 -21 365 1 121 72 315 154 421 15 20 28 41 28
45 0 19 128 143 180 176 102 65 204 87 313 69z m985 -1272 c-2 -6 -8 -10 -13
-10 -5 0 -11 4 -13 10 -2 6 4 11 13 11 9 0 15 -5 13 -11z m-10601 -326 c3 -7
-23 -20 -57 -30 -51 -15 -75 -30 -140 -90 -58 -54 -79 -69 -84 -58 -9 25 10
58 60 104 54 48 98 71 159 81 47 9 58 7 62 -7z m541 -50 c5 -10 7 -25 5 -33
-12 -42 -12 -41 -33 -30 -30 16 -35 38 -15 60 22 25 32 25 43 3z m206 -59 c22
-9 20 -37 -5 -60 -24 -21 -52 -10 -57 23 -2 16 10 28 45 42 1 1 8 -2 17 -5z
m-783 -42 c-5 -9 -24 -32 -41 -49 -26 -27 -36 -31 -51 -22 -32 17 -17 54 38
90 33 22 69 9 54 -19z m377 18 c36 -22 35 -40 -3 -40 -35 0 -66 35 -48 53 10
10 15 9 51 -13z m-168 -116 c0 -8 -4 -12 -10 -9 -5 3 -10 10 -10 16 0 5 5 9
10 9 6 0 10 -7 10 -16z m-345 -74 c11 -18 -5 -31 -26 -20 -11 6 -17 15 -14 21
8 12 32 12 40 -1z m886 -66 c11 -25 23 -61 26 -81 l6 -36 -34 7 c-44 8 -59 30
-59 82 0 86 30 100 61 28z m-1029 11 c0 -5 -5 -11 -11 -13 -6 -2 -11 4 -11 13
0 9 5 15 11 13 6 -2 11 -8 11 -13z m337 -68 c19 -23 -9 -36 -38 -18 -15 10 -7
31 13 31 8 0 19 -6 25 -13z m301 -16 c0 -6 -4 -13 -10 -16 -5 -3 -10 1 -10 9
0 9 5 16 10 16 6 0 10 -4 10 -9z m842 -41 c36 -10 67 -44 53 -58 -4 -4 -42 -9
-86 -11 -77 -3 -79 -2 -79 20 0 29 27 59 54 59 12 0 38 -5 58 -10z m-748 -53
c7 -11 7 -20 0 -27 -15 -15 -49 13 -41 34 8 20 26 17 41 -7z m-839 -52 c0 -13
-8 -21 -22 -23 -17 -3 -23 2 -23 16 0 10 3 22 7 26 13 13 38 1 38 -19z m314
-6 c38 -37 40 -59 6 -59 -25 0 -47 25 -60 68 -9 33 17 28 54 -9z m324 17 c8
-19 -20 -43 -34 -29 -12 12 -1 43 16 43 7 0 15 -6 18 -14z m-975 -54 c2 -14
-2 -22 -11 -22 -17 0 -30 27 -21 41 9 16 29 4 32 -19z m2146 -92 c-16 -16 -49
13 -40 35 6 18 8 17 29 -3 14 -15 18 -25 11 -32z m-584 -64 c0 -32 -18 -43
-38 -23 -13 13 -13 19 -2 31 19 24 40 19 40 -8z m-666 -124 c32 -51 110 -120
177 -157 45 -24 66 -29 130 -30 41 -1 81 -5 87 -9 7 -4 21 -24 32 -45 27 -53
110 -150 165 -191 149 -114 139 -102 141 -161 1 -30 9 -74 18 -99 33 -85 38
-124 33 -235 -6 -105 -21 -178 -54 -255 -32 -74 -76 -157 -104 -192 -16 -20
-29 -40 -29 -45 0 -4 -16 -26 -35 -47 -19 -22 -35 -42 -35 -45 0 -13 -220
-230 -271 -268 -38 -28 -87 -51 -155 -72 -165 -52 -297 -39 -429 42 -175 107
-351 261 -405 355 -14 24 -43 71 -65 105 -43 66 -75 128 -98 192 -8 22 -29 76
-46 120 -17 44 -34 103 -37 130 -6 55 -5 57 88 158 26 29 48 57 48 63 0 6 6
17 14 23 7 6 16 29 20 50 6 42 15 51 66 71 79 31 214 186 255 293 10 26 23 47
29 47 83 4 107 10 143 37 21 17 58 36 82 43 63 20 127 66 162 116 16 24 34 44
39 44 6 0 21 -17 34 -38z m1144 26 c9 -9 8 -16 -5 -30 -30 -33 -63 -16 -43 22
12 23 30 26 48 8z m-2140 -14 c33 -23 27 -42 -14 -50 -49 -9 -71 11 -48 44 18
26 32 28 62 6z m1366 10 c20 -7 21 -20 3 -27 -19 -7 -41 8 -33 22 8 13 9 13
30 5z m-1601 -51 c-2 -17 -21 -68 -42 -113 -30 -61 -39 -90 -34 -111 4 -21 2
-29 -9 -29 -16 0 -48 50 -48 76 0 19 18 79 31 106 5 10 9 23 9 30 0 21 61 79
79 76 11 -3 15 -13 14 -35z m1808 -94 c11 -11 18 -27 15 -36 -3 -8 -6 -24 -6
-36 0 -20 -2 -19 -31 10 -25 25 -30 36 -25 57 8 31 19 33 47 5z m212 -70 c40
-33 48 -59 18 -59 -21 0 -71 53 -71 76 0 21 11 17 53 -17z m616 -112 c79 -93
95 -150 25 -88 -26 23 -51 41 -55 41 -12 0 -11 -17 1 -25 17 -11 11 -35 -9
-35 -55 0 -78 33 -57 82 8 18 17 46 21 61 7 34 18 29 74 -36z m-268 -222 c23
-75 23 -75 -1 -75 -22 0 -80 73 -80 101 0 20 27 40 49 36 7 -1 22 -29 32 -62z
m9279 45 c0 -5 -7 -10 -16 -10 -8 0 -12 5 -9 10 3 6 10 10 16 10 5 0 9 -4 9
-10z m-9552 -111 c2 -14 -4 -31 -12 -39 -14 -11 -16 -9 -16 13 0 14 -3 33 -6
42 -5 13 -2 16 12 13 12 -2 20 -13 22 -29z m142 -100 c14 -25 4 -72 -13 -66
-12 4 -28 73 -19 82 10 10 22 5 32 -16z m-2313 -51 c13 -29 5 -88 -14 -95 -15
-6 -73 49 -73 69 1 45 69 65 87 26z m2787 -50 c-4 -13 -13 -32 -21 -43 -14
-19 -15 -18 -8 10 6 28 22 55 32 55 2 0 1 -10 -3 -22z m7710 6 c22 -9 20 -24
-3 -24 -21 0 -34 13 -24 24 8 7 8 7 27 0z m-10375 -30 c16 -21 18 -30 10 -40
-14 -17 -43 -18 -57 -1 -8 9 -10 51 -3 65 5 10 33 -3 50 -24z m44 -213 c20
-20 -6 -45 -56 -55 -34 -7 -50 -6 -62 4 -16 13 -20 51 -7 64 11 12 111 1 125
-13z m77 -131 c0 -5 -7 -10 -16 -10 -8 0 -12 5 -9 10 3 6 10 10 16 10 5 0 9
-4 9 -10z m10782 -11 c36 -19 147 -28 210 -17 32 6 62 8 65 4 18 -18 0 -119
-49 -276 -27 -87 -49 -74 -163 98 -49 75 -103 151 -119 169 l-28 33 32 0 c17
0 41 -5 52 -11z m-8179 -59 c27 -32 43 -68 33 -77 -9 -9 -86 73 -86 91 0 25
26 19 53 -14z m-330 -23 c3 -8 1 -20 -4 -28 -11 -19 -34 3 -26 25 8 20 23 21
30 3z m-212 -137 c12 -30 30 -64 39 -75 19 -23 60 -117 60 -138 0 -29 -88 -39
-109 -13 -7 8 -19 74 -27 146 -19 170 -9 191 37 80z m-1920 -187 c0 -76 4
-160 8 -186 14 -87 0 -113 -56 -98 -23 6 -29 14 -31 41 -3 33 30 233 49 294 5
16 9 42 9 57 0 16 5 29 10 29 6 0 10 -53 11 -137z m1608 -46 c15 -19 -6 -46
-39 -49 -17 -2 -25 3 -28 15 -8 38 42 63 67 34z m941 -122 c0 -24 -33 -86 -44
-82 -20 7 -18 36 4 67 23 32 40 39 40 15z m-213 -60 c3 -9 2 -19 -1 -23 -8 -8
-38 10 -44 26 -6 18 38 14 45 -3z m-2059 -37 c7 -7 12 -18 12 -25 0 -11 -5
-11 -20 -3 -11 6 -20 17 -20 25 0 18 12 19 28 3z m1776 -84 c38 -15 -4 -62
-43 -49 -25 8 -44 32 -36 45 7 11 54 14 79 4z m-1449 -84 c3 -5 1 -10 -4 -10
-6 0 -11 5 -11 10 0 6 2 10 4 10 3 0 8 -4 11 -10z m-173 -17 c10 -9 18 -20 18
-24 0 -13 -48 12 -54 27 -7 19 14 17 36 -3z m2081 -66 c-3 -40 -39 -85 -76
-95 -18 -5 -34 -7 -37 -4 -3 2 14 21 38 42 30 27 42 46 42 65 0 20 4 26 18 23
12 -3 16 -12 15 -31z m-274 7 c40 -8 39 -19 -1 -38 -47 -20 -74 -25 -89 -15
-11 7 -8 15 14 34 31 28 31 28 76 19z m-2699 -153 c0 -41 6 -80 15 -97 8 -15
12 -30 10 -32 -15 -16 -75 79 -75 118 0 32 28 92 40 85 5 -3 10 -37 10 -74z
m144 23 c4 -9 -1 -28 -9 -41 -13 -20 -19 -22 -31 -12 -17 14 -18 41 -2 57 17
17 35 15 42 -4z m306 -34 c0 -5 -4 -10 -10 -10 -5 0 -10 5 -10 10 0 6 5 10 10
10 6 0 10 -4 10 -10z m-130 -74 c0 -16 -18 -31 -27 -22 -8 8 5 36 17 36 5 0
10 -6 10 -14z m225 -87 c4 -17 5 -33 2 -36 -9 -8 -46 16 -58 39 -9 18 -8 24 6
35 23 16 41 3 50 -38z m11973 -454 c7 -14 12 -31 12 -36 0 -6 12 -35 26 -66
26 -54 26 -55 7 -74 -15 -15 -39 -21 -104 -26 l-85 -6 -43 49 c-60 68 -69 90
-45 109 10 8 39 21 64 29 25 8 63 22 85 30 56 21 70 20 83 -9z m-10434 -90
c27 -8 67 -15 89 -15 23 0 66 -6 96 -14 31 -8 99 -24 151 -36 157 -36 283 -68
313 -79 16 -6 38 -11 50 -11 29 0 218 -62 288 -93 30 -14 81 -35 114 -47 33
-12 85 -33 115 -47 30 -14 71 -32 90 -40 19 -9 62 -28 95 -44 112 -53 174 -79
187 -79 8 0 22 -6 33 -14 11 -7 63 -27 115 -45 52 -18 109 -39 127 -47 17 -8
34 -14 38 -14 11 0 285 -124 353 -159 37 -20 187 -64 245 -72 34 -5 87 -14
117 -20 91 -17 239 -31 345 -33 82 -1 100 -4 100 -16 -2 -41 -17 -125 -29
-153 -16 -37 -33 -104 -51 -197 -7 -36 -20 -90 -28 -120 -8 -30 -24 -104 -37
-165 -12 -60 -26 -118 -32 -129 -5 -10 -12 -44 -15 -75 -3 -31 -10 -65 -16
-76 -13 -24 -20 -64 -47 -245 -45 -314 -53 -358 -71 -425 -10 -38 -19 -78 -19
-89 0 -34 -34 -136 -45 -136 -16 1 -52 32 -79 70 -71 101 -142 204 -153 223
-39 67 -190 262 -242 312 -23 21 -41 43 -41 48 0 12 -140 151 -245 243 -44 39
-109 99 -145 133 -36 35 -95 82 -132 106 -36 24 -83 59 -105 78 -33 30 -193
116 -328 177 -22 10 -123 58 -225 108 -102 49 -205 99 -230 110 -25 10 -61 26
-80 35 -19 8 -44 17 -55 19 -11 2 -26 17 -34 33 -19 41 -51 75 -71 75 -22 0
-53 -35 -77 -85 -10 -21 -34 -50 -53 -63 -40 -27 -68 -65 -189 -253 -66 -104
-64 -95 -55 -256 l5 -92 -29 -15 c-46 -24 -152 -39 -186 -27 -15 6 -32 8 -37
5 -13 -7 -340 -23 -356 -17 -7 3 -11 9 -8 13 3 5 -2 35 -12 67 -9 32 -18 83
-19 113 -2 65 -19 186 -34 255 -6 28 -13 66 -15 85 -25 272 -32 327 -59 470
-7 41 -11 78 -7 83 4 4 45 4 92 0 l84 -8 7 -60 c8 -69 23 -160 38 -225 12 -54
27 -161 34 -250 8 -99 23 -202 37 -251 7 -24 13 -64 15 -88 4 -51 13 -64 44
-59 41 6 62 47 63 129 3 136 -19 386 -48 544 -3 17 -8 44 -10 60 -15 128 -29
189 -48 208 l-20 20 21 16 c12 9 32 23 44 32 43 30 108 140 133 223 26 89 38
185 37 319 l0 87 26 0 c15 0 49 -7 76 -15z m8860 -243 c-8 -67 -25 -89 -76
-97 -24 -4 -60 -17 -80 -29 -34 -19 -39 -20 -53 -5 -15 14 -15 24 -5 77 7 34
18 66 25 72 7 5 34 12 61 15 27 3 65 9 84 13 19 5 38 7 43 5 4 -3 5 -25 1 -51z
m5857 11 c28 -25 53 -91 44 -115 -15 -37 -132 -71 -172 -50 -35 19 -75 87 -71
123 7 73 137 100 199 42z m-436 -44 l70 -35 5 -55 c5 -57 19 -84 77 -157 42
-51 73 -69 141 -78 28 -3 58 -14 66 -23 14 -15 14 -21 -1 -54 -10 -20 -20 -37
-24 -37 -4 0 -15 -23 -24 -50 -25 -76 -44 -84 -168 -75 -129 10 -139 11 -157
17 -46 15 -89 27 -118 33 -18 4 -52 21 -75 39 -23 17 -69 48 -102 68 -33 20
-80 57 -105 82 l-44 46 52 53 c29 29 52 58 52 64 0 6 18 29 40 52 22 22 40 45
40 49 0 9 68 68 104 90 32 19 93 8 171 -29z m-4785 -261 c16 -35 41 -99 55
-143 14 -44 30 -89 35 -100 4 -11 13 -54 20 -95 6 -41 14 -86 17 -100 14 -62
15 -79 26 -319 2 -53 7 -67 25 -79 39 -26 92 -32 151 -16 31 8 104 17 162 21
l106 6 12 -64 c6 -35 16 -92 21 -127 5 -35 13 -68 17 -75 4 -6 10 -29 14 -52
4 -22 12 -66 19 -99 6 -32 12 -68 12 -80 0 -22 18 -160 24 -186 1 -8 7 -29 13
-47 5 -17 7 -62 5 -99 -2 -37 0 -72 5 -78 5 -6 12 -36 15 -66 15 -116 25 -187
35 -245 18 -113 31 -230 31 -288 0 -32 4 -66 10 -76 5 -10 12 -47 15 -81 2
-35 12 -74 20 -87 9 -14 13 -33 9 -48 -3 -14 -1 -31 4 -38 6 -7 11 -22 11 -32
-1 -35 21 -156 31 -175 6 -10 10 -40 10 -67 0 -26 7 -77 15 -113 9 -36 22 -96
30 -135 8 -38 20 -90 26 -115 6 -25 15 -72 21 -105 6 -33 17 -77 24 -98 8 -20
14 -49 14 -64 0 -33 20 -103 35 -123 6 -8 10 -26 9 -40 -1 -14 2 -43 7 -65 5
-22 12 -58 15 -80 3 -21 10 -60 15 -85 5 -25 16 -81 24 -125 9 -44 22 -107 30
-140 7 -33 17 -89 21 -125 3 -36 17 -89 31 -118 13 -29 21 -57 18 -61 -6 -10
11 -103 24 -136 8 -19 20 -61 42 -150 6 -22 14 -62 19 -90 5 -27 18 -86 30
-130 12 -44 24 -95 27 -113 3 -18 9 -35 14 -38 5 -3 9 -22 9 -42 0 -20 9 -66
21 -102 42 -134 49 -158 49 -178 0 -12 5 -24 10 -27 6 -3 10 -15 10 -27 0 -11
6 -34 14 -51 7 -18 24 -61 36 -97 13 -36 29 -76 36 -90 7 -14 19 -56 28 -95 9
-38 22 -74 29 -80 6 -5 12 -28 13 -50 0 -22 8 -65 16 -95 9 -30 28 -100 42
-155 14 -55 28 -110 32 -122 7 -26 -32 -56 -80 -60 -34 -3 -119 -16 -211 -32
-33 -6 -91 -13 -130 -17 -76 -6 -164 -18 -235 -33 -104 -23 -125 -7 -145 110
-8 48 -17 113 -19 145 -3 33 -10 124 -16 204 -7 80 -12 154 -12 165 1 10 -3
24 -7 30 -5 5 -11 33 -14 60 -6 68 -36 266 -43 285 -3 8 -7 47 -10 85 -7 114
-34 366 -46 425 -6 30 -11 67 -12 82 0 14 -4 30 -8 34 -5 4 -8 22 -8 39 0 18
-7 51 -15 74 -8 23 -17 79 -20 124 -3 45 -8 94 -11 109 -3 15 -7 47 -9 70 -2
24 -11 99 -20 168 -9 69 -18 139 -19 155 -2 17 -4 32 -6 35 -1 3 -4 18 -6 34
-3 30 -20 89 -61 213 -12 39 -23 80 -23 90 0 11 -10 41 -23 69 -48 100 -109
321 -124 444 -3 25 -10 50 -15 57 -5 7 -7 16 -4 21 3 5 1 24 -5 43 -6 19 -14
59 -19 89 -40 236 -149 643 -191 715 -4 6 -10 24 -14 40 -5 17 -9 35 -11 40
-2 6 -10 34 -18 64 -8 30 -20 59 -25 64 -6 6 -11 21 -11 34 0 38 -30 101 -57
119 -26 17 -102 23 -138 11 -38 -13 -52 -56 -65 -207 -8 -95 -10 -225 -6 -375
5 -187 21 -542 25 -552 4 -10 21 0 21 12 0 8 7 15 15 15 25 0 17 -29 -10 -36
-21 -5 -24 -10 -20 -42 2 -21 7 -82 10 -137 3 -55 8 -113 10 -130 6 -45 15
-158 20 -270 4 -104 16 -198 39 -326 14 -75 14 -212 1 -484 -5 -103 -6 -209
-4 -580 1 -172 -7 -321 -23 -415 -6 -36 -12 -78 -13 -95 -1 -16 -5 -37 -8 -45
-6 -14 -23 -103 -33 -173 -25 -177 -44 -341 -51 -442 -3 -56 -11 -96 -19 -106
-9 -9 -39 -19 -72 -23 -53 -6 -121 -16 -217 -32 -22 -3 -46 -11 -52 -16 -7 -6
-19 -8 -26 -5 -8 3 -45 -1 -83 -9 -96 -21 -346 -27 -370 -9 -17 12 -17 19 -6
101 7 49 15 180 18 292 3 112 7 208 9 215 2 7 9 89 15 182 6 94 15 208 21 255
5 47 12 112 15 145 2 33 9 94 15 135 5 41 14 125 19 185 5 61 14 130 19 155 5
25 10 98 10 163 1 65 5 126 10 135 5 9 12 62 16 117 4 55 9 120 12 145 2 25 6
335 7 690 1 355 6 740 10 855 4 116 9 386 11 600 3 215 9 458 14 540 5 83 8
239 7 348 -3 176 -1 199 13 207 21 11 293 67 411 84 47 7 114 11 150 9 l65 -5
43 43 c46 46 50 64 28 126 -9 27 -13 70 -10 134 2 52 4 96 5 99 1 3 3 73 4
155 4 373 8 425 31 425 8 0 28 -28 44 -62z m-4813 -914 c9 -23 -19 -37 -37
-18 -13 13 -13 16 0 24 21 14 30 12 37 -6z m-77 -24 c0 -5 -8 -10 -17 -10 -15
0 -16 2 -3 10 19 12 20 12 20 0z m281 -26 c18 -21 7 -25 -32 -12 -43 16 -42
15 -35 26 8 13 53 3 67 -14z m334 -84 c9 -15 -14 -77 -31 -84 -15 -6 -54 26
-54 45 0 27 22 49 50 49 16 0 32 -5 35 -10z m-147 -229 c18 -11 5 -59 -18 -71
-10 -6 -40 -10 -66 -10 -42 0 -45 2 -33 17 16 18 89 73 98 73 3 0 12 -4 19 -9z
m6261 -5377 c39 -8 55 -33 41 -68 -16 -42 -55 -34 -120 24 l-55 49 51 1 c28 0
66 -3 83 -6z m338 -63 c39 -25 48 -50 30 -94 -14 -33 -17 -34 -81 -41 -86 -9
-106 1 -106 55 0 82 83 124 157 80z m-661 -46 c10 -19 22 -35 26 -35 3 0 9 -8
13 -19 3 -10 23 -38 45 -61 44 -47 49 -67 23 -77 -10 -3 -30 -15 -45 -25 -64
-45 -92 -3 -104 155 -6 82 -4 97 8 97 8 0 23 -16 34 -35z m223 -59 c37 -20 55
-42 41 -51 -14 -8 -56 19 -70 45 -13 24 -8 25 29 6z m-3229 -82 c64 -41 136
-112 120 -118 -30 -10 -110 14 -110 33 0 5 -13 14 -30 21 -33 14 -60 49 -60
80 0 18 4 20 23 14 12 -4 38 -17 57 -30z m4249 -124 c68 -11 142 -28 165 -35
22 -8 79 -18 126 -21 47 -4 93 -10 102 -15 9 -5 28 -9 42 -9 14 0 27 -4 30 -9
3 -5 21 -12 40 -15 43 -8 109 -74 144 -146 24 -49 26 -65 24 -140 -3 -67 -7
-89 -22 -105 -27 -28 -218 -77 -348 -89 -35 -3 -72 -11 -83 -16 -11 -6 -70
-11 -132 -12 -61 0 -134 -5 -162 -10 -27 -5 -147 -11 -265 -13 -491 -10 -576
-9 -620 8 -18 7 -146 15 -350 24 -106 4 -161 10 -175 19 -11 8 -40 14 -66 14
-89 0 -138 11 -153 35 -20 30 -31 253 -15 304 l11 36 181 -3 c100 -2 201 -4
224 -5 50 -2 72 20 73 70 0 31 1 32 58 38 31 4 83 16 116 27 l58 20 22 -21
c18 -19 21 -34 22 -109 0 -95 21 -157 56 -168 35 -11 46 12 48 104 0 48 2 103
4 122 1 19 3 45 4 58 4 55 98 86 134 45 14 -17 30 -71 33 -118 3 -35 17 -89
31 -116 24 -48 69 -48 78 -1 22 123 28 191 19 219 -6 17 -8 35 -4 41 17 28
374 23 550 -8z m-1508 -734 c41 -8 126 -17 189 -20 63 -3 164 -15 223 -26 60
-11 111 -19 115 -19 36 5 62 -3 62 -20 0 -36 -37 -50 -140 -51 -151 -1 -421
11 -445 20 -14 5 -39 10 -54 10 -60 0 -105 72 -69 108 15 15 30 15 119 -2z"/>
<path d="M14797 13961 c-42 -28 -57 -55 -61 -112 -3 -39 1 -62 16 -88 27 -49
58 -81 78 -81 31 0 97 57 109 93 16 47 -16 134 -65 176 -41 36 -41 36 -77 12z"/>
<path d="M14322 13772 c-15 -16 -33 -42 -41 -58 -7 -16 -17 -37 -22 -46 -13
-26 23 -101 64 -132 51 -39 97 -36 132 10 24 31 27 42 21 81 -7 50 -40 125
-65 147 -34 30 -60 29 -89 -2z"/>
<path d="M14951 13276 c-12 -13 -35 -48 -50 -77 -21 -43 -44 -67 -116 -121
-50 -37 -97 -68 -106 -68 -8 0 -24 -7 -35 -15 -26 -20 -95 -19 -141 2 -21 9
-59 34 -85 55 -66 54 -99 64 -136 43 -29 -18 -52 -63 -52 -104 0 -26 76 -110
139 -153 54 -38 127 -58 209 -58 59 0 71 4 165 57 113 64 232 154 270 205 42
55 78 152 71 190 -13 65 -86 89 -133 44z"/>
<path d="M5250 11532 c-67 -31 -90 -68 -93 -154 -2 -48 1 -58 23 -77 43 -36
87 -43 136 -22 52 23 71 51 80 118 6 51 6 51 -40 97 -44 45 -70 54 -106 38z"/>
<path d="M4719 11447 c-15 -12 -29 -35 -31 -52 -3 -16 -11 -51 -18 -76 -12
-42 -12 -50 3 -73 30 -45 61 -59 114 -51 34 5 56 16 80 40 41 41 42 68 2 146
-23 46 -38 64 -64 75 -45 18 -55 17 -86 -9z"/>
<path d="M5582 11063 c-12 -10 -34 -56 -50 -104 -16 -47 -40 -98 -53 -114 -50
-60 -172 -175 -185 -175 -8 0 -14 -4 -14 -10 0 -12 -119 -45 -200 -55 -45 -5
-122 11 -187 41 -17 8 -35 14 -40 14 -22 0 -135 89 -172 136 -22 29 -49 54
-59 56 -44 12 -82 -28 -82 -86 0 -94 199 -268 340 -297 30 -6 73 -15 95 -19
45 -9 145 -1 145 11 0 5 26 9 58 9 65 0 113 15 159 48 17 12 35 22 41 22 15 0
232 222 249 255 9 17 21 37 29 45 7 9 18 48 24 88 11 65 10 76 -8 110 -22 43
-57 53 -90 25z"/>
<path d="M17637 1472 c-20 -21 -37 -43 -37 -50 0 -7 -4 -12 -10 -12 -17 0 -11
-36 9 -54 13 -12 21 -38 26 -82 5 -49 12 -67 28 -79 34 -24 66 -19 78 13 15
36 3 215 -15 251 -28 52 -39 54 -79 13z"/>
<path d="M10843 14189 c-68 -9 -89 -18 -147 -63 -36 -28 -54 -47 -140 -139
-20 -21 -26 -39 -26 -71 0 -30 -6 -48 -20 -61 -11 -10 -20 -29 -20 -43 0 -25
-24 -51 -48 -52 -7 0 -32 13 -55 28 -74 50 -161 74 -343 95 -132 16 -182 12
-279 -23 -167 -61 -253 -187 -254 -375 -1 -98 8 -194 19 -215 5 -10 10 -28 10
-40 0 -12 8 -34 19 -48 10 -15 21 -39 24 -53 17 -70 129 -196 218 -247 19 -11
62 -36 96 -56 34 -20 66 -36 72 -36 6 0 35 -12 63 -27 89 -45 109 -53 125 -53
8 0 46 -20 84 -45 38 -25 73 -45 77 -45 4 0 31 -16 61 -35 29 -19 54 -35 56
-35 17 0 270 -181 333 -239 45 -42 99 -88 119 -103 48 -37 91 -37 126 0 25 26
26 32 25 127 -2 95 10 183 31 222 5 10 26 54 47 98 20 44 44 88 52 98 16 18
25 32 59 95 13 22 27 43 32 46 16 10 71 125 71 149 0 12 4 27 10 33 5 5 11 28
14 49 2 22 6 47 9 55 10 28 31 145 29 154 -2 6 1 19 7 30 5 12 17 76 26 143
15 105 15 136 5 210 -14 95 -43 193 -62 204 -6 4 -19 25 -27 47 -30 76 -158
193 -238 217 -51 16 -159 18 -260 4z m137 -449 c0 -5 -2 -10 -4 -10 -3 0 -8 5
-11 10 -3 6 -1 10 4 10 6 0 11 -4 11 -10z m-849 -321 c53 -25 63 -39 25 -39
-20 0 -128 50 -146 68 -12 12 76 -9 121 -29z m-112 -156 c23 -20 41 -83 23
-83 -6 0 -24 14 -41 31 -50 50 -34 95 18 52z m646 -293 c8 -13 -13 -40 -31
-40 -8 0 -14 10 -14 25 0 18 5 25 19 25 11 0 23 -5 26 -10z m123 -77 c-3 -31
-30 -42 -53 -23 -21 18 -1 50 31 50 22 0 25 -4 22 -27z m-135 -212 c45 -19
117 -76 117 -92 0 -4 -8 -5 -17 -1 -22 9 -163 102 -163 108 0 8 19 4 63 -15z
m188 -141 c23 -19 23 -19 4 -20 -21 0 -45 17 -45 32 0 14 17 9 41 -12z"/>
<path d="M15965 13255 c-48 -17 -167 -126 -195 -178 -21 -38 -27 -102 -11
-111 10 -7 96 61 96 75 0 5 13 23 29 40 24 25 34 29 55 24 14 -4 55 -8 91 -9
75 -2 161 -30 191 -62 l21 -23 -40 -11 c-43 -11 -78 -46 -89 -88 -5 -20 0 -31
20 -48 15 -13 27 -26 27 -29 0 -4 16 -25 35 -48 33 -38 35 -45 35 -111 -1 -66
-3 -74 -35 -110 -20 -22 -45 -40 -60 -41 -14 -2 -44 -7 -67 -11 -73 -13 -138
1 -138 29 0 7 -16 27 -34 45 -30 30 -35 32 -62 22 -57 -22 -64 -36 -58 -109 6
-63 5 -67 -22 -93 -28 -25 -32 -26 -84 -17 -30 6 -61 16 -68 23 -19 19 -18
163 2 185 35 39 1 107 -46 93 -54 -16 -68 -35 -78 -113 -5 -41 -14 -92 -19
-113 -6 -22 -7 -44 -4 -49 2 -4 6 -20 8 -34 4 -39 63 -86 127 -100 72 -16 151
-9 210 19 32 15 63 37 70 48 11 17 24 20 83 20 204 1 358 88 401 225 23 74 23
173 0 206 -23 33 -20 60 13 121 16 29 30 62 32 73 9 60 -36 123 -111 157 -138
62 -209 98 -215 107 -9 15 -62 13 -110 -4z"/>
<path d="M15135 9840 c-11 -4 -30 -22 -43 -39 -20 -28 -22 -36 -12 -66 6 -18
17 -35 24 -38 7 -3 36 6 64 19 48 22 52 27 52 57 0 48 -44 82 -85 67z"/>
<path d="M15147 9582 c-34 -21 -42 -45 -27 -83 13 -29 19 -33 55 -30 25 3 65
46 65 72 0 21 -33 59 -52 59 -7 0 -25 -8 -41 -18z"/>
<path d="M20300 9440 c-37 -37 -21 -170 21 -178 8 -1 27 7 42 18 32 26 36 78
10 131 -26 54 -42 60 -73 29z"/>
<path d="M20738 9417 c-16 -14 -28 -28 -28 -32 0 -4 -9 -18 -20 -32 -11 -14
-20 -41 -20 -59 0 -30 3 -34 25 -34 30 0 101 67 111 104 17 68 -19 96 -68 53z"/>
<path d="M20907 9124 c-31 -16 -59 -58 -51 -77 8 -21 41 -27 101 -20 64 7 101
39 84 71 -18 35 -90 48 -134 26z"/>
<path d="M21012 8690 c-29 -18 -33 -25 -27 -48 9 -40 27 -49 112 -57 63 -6 78
-4 92 9 14 15 14 19 1 43 -18 32 -62 59 -110 68 -26 4 -44 0 -68 -15z"/>
<path d="M6030 7008 c-29 -17 -64 -23 -195 -34 -88 -7 -216 -19 -285 -26 -150
-15 -523 -20 -565 -8 -50 15 -283 22 -306 9 -35 -18 -69 -52 -70 -68 0 -9 -8
-28 -17 -42 -53 -83 -74 -120 -76 -141 -3 -23 -8 -36 -44 -118 -11 -26 -23
-75 -26 -110 -4 -36 -11 -74 -15 -85 -17 -43 -31 -92 -31 -112 0 -12 -16 -83
-36 -160 -19 -76 -37 -151 -40 -168 -3 -16 -9 -41 -14 -55 -6 -14 -21 -81 -35
-150 -14 -69 -30 -138 -35 -155 -5 -16 -16 -59 -25 -95 -32 -125 -37 -145 -46
-165 -16 -39 -36 -120 -32 -132 2 -6 -5 -51 -17 -100 -45 -189 -91 -498 -95
-638 -1 -38 -5 -99 -8 -135 -4 -36 -9 -91 -12 -124 -2 -32 -9 -64 -14 -70 -5
-6 -12 -40 -15 -76 -6 -57 -16 -137 -31 -250 -44 -335 -49 -461 -29 -700 3
-36 7 -240 9 -455 l4 -390 -25 -85 c-14 -47 -32 -100 -40 -118 -8 -18 -14 -46
-14 -62 0 -17 -4 -38 -9 -48 -18 -34 -33 -151 -30 -238 3 -134 -10 -271 -32
-336 -10 -31 -19 -65 -19 -75 0 -30 -24 -85 -55 -132 -17 -24 -36 -53 -42 -65
-44 -75 40 -116 123 -60 41 28 93 82 94 99 0 6 7 24 16 40 9 17 20 44 24 60 5
17 18 66 30 110 16 63 22 117 25 250 2 94 7 193 10 220 8 67 64 302 81 340 23
53 36 193 29 325 -3 69 -8 215 -11 325 -3 110 -7 220 -9 245 -15 153 -15 395
-1 530 20 186 54 441 66 503 5 26 14 111 20 190 19 253 45 479 84 732 15 96
68 324 79 343 11 16 75 276 96 387 12 61 26 118 31 127 6 10 10 29 10 42 0 14
7 51 15 83 9 32 18 70 20 85 3 15 10 40 16 55 13 34 51 199 53 233 1 14 6 39
10 55 4 17 21 77 36 135 16 58 31 121 34 140 10 57 39 97 78 104 18 3 101 1
183 -4 83 -6 191 -11 242 -10 63 0 94 -4 100 -13 33 -52 113 -482 113 -612 0
-28 4 -56 9 -63 4 -8 5 -28 1 -45 -3 -18 -2 -52 2 -77 20 -104 25 -249 14
-405 -4 -55 -7 -156 -7 -224 1 -73 -5 -157 -14 -206 -15 -76 -20 -117 -45
-315 -5 -41 -11 -122 -14 -180 -3 -58 -10 -125 -15 -150 -6 -25 -15 -94 -22
-155 -6 -60 -16 -118 -21 -128 -18 -34 -29 -1033 -16 -1377 7 -174 13 -223 41
-332 8 -32 13 -59 10 -61 -2 -2 4 -31 13 -63 45 -163 70 -295 93 -484 6 -41
14 -91 20 -110 6 -19 15 -55 22 -80 19 -73 41 -134 54 -150 7 -8 23 -49 35
-90 12 -41 28 -88 35 -105 7 -16 21 -72 30 -123 15 -80 15 -96 4 -108 -8 -7
-65 -22 -128 -33 -62 -11 -118 -24 -124 -30 -6 -6 -32 -11 -57 -11 -26 0 -69
-7 -96 -15 -157 -50 -201 -57 -267 -43 -44 9 -51 8 -86 -17 -31 -21 -57 -28
-132 -36 -52 -5 -108 -14 -125 -19 -42 -14 -186 -30 -199 -22 -5 3 -42 5 -82
3 -63 -2 -79 1 -136 28 -36 17 -70 31 -76 31 -20 0 -74 31 -91 53 -13 15 -32
22 -76 25 -50 3 -62 1 -78 -17 -15 -16 -17 -29 -12 -66 8 -51 29 -75 93 -106
66 -32 71 -51 27 -104 -40 -49 -51 -52 -114 -30 -76 27 -141 18 -235 -31 -35
-18 -43 -29 -67 -95 -20 -56 -27 -93 -27 -156 l-1 -81 85 -78 c101 -92 116
-101 233 -149 109 -44 189 -64 257 -65 67 0 228 18 350 40 55 10 123 22 150
25 28 4 81 14 118 22 43 10 72 12 78 6 5 -5 11 -32 12 -60 2 -29 9 -58 15 -66
7 -7 9 -17 5 -20 -3 -4 95 -7 220 -7 l226 0 -11 31 c-14 40 -4 194 15 241 9
22 13 53 9 86 -4 45 -1 58 22 90 35 50 35 99 1 112 -13 5 -31 24 -39 43 -17
42 -72 77 -120 77 -46 0 -50 12 -33 81 16 60 22 65 127 99 64 21 319 62 391
62 81 1 130 -12 139 -37 12 -31 39 -45 89 -45 31 0 47 7 72 31 32 31 52 33
119 9 14 -5 54 -14 90 -19 116 -17 291 -51 305 -58 11 -6 8 -19 -13 -63 -23
-48 -27 -70 -30 -168 -3 -97 -1 -117 15 -145 26 -43 34 -75 47 -182 l11 -90
150 -6 c83 -4 196 -10 252 -14 78 -6 106 -5 118 5 19 16 20 88 0 126 -8 16
-11 32 -7 36 9 9 92 -2 92 -13 0 -5 8 -9 18 -9 9 0 31 -8 47 -18 17 -10 52
-22 79 -25 30 -4 85 -26 140 -56 74 -39 104 -50 161 -55 39 -4 95 -14 126 -22
76 -19 143 -18 272 6 94 17 112 24 139 50 16 17 42 37 57 45 15 7 44 32 64 54
34 38 37 46 37 100 0 57 -2 62 -56 130 -31 39 -62 71 -69 71 -21 0 -25 26 -20
128 3 53 2 102 -2 108 -16 22 -53 34 -110 34 -47 0 -61 -4 -71 -20 -24 -39
-93 -80 -133 -80 -31 0 -48 -8 -90 -46 -47 -42 -55 -45 -88 -39 -20 4 -55 15
-78 26 -23 10 -49 19 -57 19 -24 0 -29 19 -12 44 10 17 29 26 58 31 158 24
306 55 343 70 16 7 53 18 80 24 50 12 157 60 185 83 23 19 84 99 100 131 18
35 15 108 -5 146 -8 16 -29 38 -47 49 -59 37 -187 189 -203 242 -4 14 -17 39
-29 55 -12 17 -35 59 -50 95 -16 36 -34 72 -41 80 -7 8 -18 32 -24 52 -7 20
-19 42 -27 48 -7 7 -14 21 -14 31 0 11 -4 19 -9 19 -5 0 -14 14 -20 30 -5 17
-17 33 -25 36 -9 3 -13 10 -10 15 3 5 -4 22 -15 38 -12 16 -21 34 -21 40 0 6
-16 46 -36 88 -61 131 -72 157 -84 198 -7 22 -16 44 -21 50 -5 5 -9 16 -9 25
0 8 -18 69 -40 135 -22 66 -43 134 -46 150 -3 17 -17 52 -30 79 -14 27 -29 69
-35 95 -5 25 -18 57 -27 71 -9 14 -17 32 -18 41 -1 15 -27 92 -45 134 -25 60
-30 121 -28 373 1 147 -1 305 -4 352 -4 47 -6 157 -6 245 1 337 -3 500 -12
516 -5 10 -9 54 -9 98 0 44 -4 102 -9 128 -5 26 -17 98 -26 158 -10 61 -26
137 -37 170 -11 33 -31 100 -44 150 -14 49 -30 106 -35 125 -18 60 -39 154
-39 178 0 12 -4 22 -10 22 -5 0 -10 9 -10 20 0 12 -11 43 -25 70 -14 27 -25
58 -25 68 0 10 -4 22 -9 28 -4 5 -16 32 -26 59 -10 28 -24 64 -31 82 -8 17
-14 36 -14 42 0 6 -9 26 -20 46 -11 20 -20 42 -20 49 0 7 -9 25 -21 40 -11 14
-17 26 -14 26 4 0 3 6 -3 13 -6 7 -26 42 -45 78 -57 108 -88 163 -104 181 -9
10 -26 39 -40 65 -61 122 -93 177 -117 202 -14 15 -26 31 -26 35 0 5 -16 23
-35 42 -19 18 -35 37 -35 41 0 5 -28 31 -61 59 -34 27 -78 63 -98 80 -50 42
-105 74 -127 74 -11 0 -35 -10 -54 -22z m127 -216 c129 -108 166 -157 252
-327 22 -44 50 -93 61 -110 11 -16 20 -37 20 -45 0 -9 13 -31 30 -50 16 -19
29 -40 30 -47 0 -6 4 -13 9 -15 33 -13 149 -255 177 -370 3 -15 12 -32 20 -39
8 -6 14 -23 14 -36 0 -14 11 -47 25 -74 13 -27 27 -66 30 -86 8 -45 23 -100
35 -128 5 -11 19 -67 31 -125 12 -58 27 -116 34 -130 7 -14 19 -52 25 -85 7
-33 18 -76 25 -95 7 -19 16 -55 19 -80 4 -25 11 -65 16 -90 5 -25 11 -76 14
-115 3 -38 9 -90 13 -115 7 -43 9 -342 4 -620 -1 -74 3 -169 9 -210 13 -87 14
-172 6 -442 -6 -195 -6 -198 20 -275 15 -43 30 -82 34 -88 3 -5 12 -29 20 -53
7 -23 19 -47 27 -53 7 -6 13 -19 13 -28 0 -9 11 -39 24 -68 13 -28 29 -77 36
-110 7 -32 18 -68 26 -81 8 -13 18 -46 21 -75 3 -29 11 -61 18 -73 8 -12 17
-39 21 -60 4 -21 15 -58 25 -82 11 -24 21 -54 23 -68 3 -14 13 -39 24 -57 11
-18 23 -45 26 -61 4 -17 16 -42 27 -57 10 -15 19 -33 19 -41 0 -7 23 -51 50
-98 28 -46 60 -105 72 -130 11 -25 24 -52 29 -60 10 -16 54 -108 88 -180 34
-73 114 -212 149 -260 47 -65 52 -70 109 -119 59 -50 69 -67 51 -89 -26 -30
-90 -63 -136 -68 -26 -3 -69 -11 -97 -19 -27 -7 -70 -16 -95 -20 -94 -13 -235
-37 -242 -41 -13 -9 -409 -27 -538 -26 -138 2 -267 18 -290 37 -8 7 -51 17
-95 23 -111 15 -168 42 -190 89 -9 21 -26 56 -36 79 -10 22 -19 44 -19 48 0 8
-44 107 -65 147 -8 14 -19 48 -25 75 -6 27 -19 60 -29 74 -33 46 -71 121 -71
140 0 10 -4 21 -9 25 -5 3 -13 20 -16 38 -4 17 -15 50 -25 72 -10 23 -22 53
-25 68 -4 15 -11 30 -16 33 -5 3 -9 16 -9 29 0 13 -4 26 -9 30 -5 3 -17 31
-26 63 -9 31 -20 62 -25 67 -4 6 -18 44 -30 85 -13 41 -27 79 -32 85 -4 5 -8
21 -8 36 0 15 -4 31 -10 34 -5 3 -10 16 -10 29 0 12 -4 26 -8 31 -15 17 -52
159 -53 201 -1 21 -5 53 -9 69 -5 17 -12 59 -15 95 -4 36 -10 69 -13 74 -3 5
-9 48 -14 95 -5 47 -11 102 -13 121 -11 101 -3 313 15 375 8 30 15 133 26 380
3 71 9 134 13 140 5 5 11 30 14 55 6 50 18 101 42 175 9 28 20 64 25 80 5 17
16 93 25 170 9 77 22 178 31 225 8 47 21 121 29 165 18 101 34 291 36 420 3
140 -10 635 -16 645 -3 4 -7 50 -11 101 -3 50 -10 113 -15 138 -5 25 -19 98
-29 161 -28 166 -36 199 -58 258 -11 29 -20 54 -20 55 3 8 -29 90 -53 135 -15
29 -29 67 -31 85 -3 32 -3 32 47 34 92 4 215 26 242 43 34 21 55 13 140 -58z
m-588 -38 c12 -19 21 -42 21 -50 0 -8 18 -50 39 -93 21 -43 42 -99 46 -122 4
-24 12 -53 18 -64 6 -11 17 -56 25 -100 7 -44 18 -100 23 -125 28 -131 42
-381 44 -780 3 -383 2 -400 -22 -540 -14 -80 -29 -172 -33 -205 -4 -33 -10
-69 -13 -80 -3 -11 -13 -85 -21 -165 -9 -80 -18 -158 -19 -175 -2 -16 -11 -55
-20 -85 -16 -54 -41 -157 -58 -235 -4 -22 -13 -146 -19 -275 -6 -129 -17 -271
-25 -315 -8 -44 -14 -115 -15 -158 0 -43 -2 -82 -4 -86 -6 -10 11 -202 23
-266 21 -107 41 -257 36 -266 -4 -5 -3 -15 2 -21 4 -7 13 -44 20 -83 14 -87
36 -164 49 -173 5 -4 16 -27 24 -52 7 -25 17 -49 21 -55 8 -12 24 -90 18 -91
-2 0 1 -7 7 -15 6 -8 17 -36 24 -64 7 -27 22 -62 32 -77 10 -15 28 -58 40 -95
11 -37 24 -72 28 -78 4 -5 11 -28 14 -50 4 -22 13 -49 20 -60 7 -11 22 -45 34
-75 11 -30 41 -102 66 -159 25 -57 51 -122 57 -145 5 -23 24 -69 42 -104 28
-56 30 -64 16 -78 -14 -14 -30 -13 -160 2 -79 9 -150 22 -157 29 -7 7 -22 45
-32 86 -11 41 -29 99 -40 129 -11 30 -20 64 -20 75 0 11 -7 33 -15 49 -8 15
-15 38 -15 50 -1 11 -7 37 -14 56 -80 207 -100 279 -126 465 -5 33 -20 107
-34 165 -14 58 -30 133 -35 168 -5 34 -13 67 -17 73 -4 7 -10 39 -15 73 -4 33
-12 81 -18 106 -5 25 -13 99 -16 165 -4 66 -10 188 -14 270 -14 278 -1 1023
20 1135 12 62 13 74 33 290 36 381 53 525 76 655 11 58 24 440 21 600 -1 61
-9 171 -17 245 -8 74 -17 182 -20 240 -2 58 -9 130 -15 160 -6 30 -12 64 -14
75 -19 112 -25 129 -79 232 -10 18 -16 45 -14 60 3 25 8 29 53 34 114 13 121
12 144 -27z m-1514 -5974 c11 -5 36 -15 55 -24 74 -31 266 -35 477 -11 146 17
160 14 149 -29 -9 -35 -41 -54 -101 -61 -107 -12 -333 -24 -366 -20 -19 3 -49
0 -68 -6 -33 -11 -36 -10 -62 22 -16 19 -29 41 -29 50 0 24 -21 39 -56 39 -22
0 -38 7 -48 22 -26 37 -10 42 49 18z m3865 -144 c0 -22 -17 -46 -32 -46 -11 0
-10 25 3 54 14 29 29 25 29 -8z"/>
</g>
</svg>
